
        <svg width="256" height="256" viewBox="0 0 80 80" fill="none" xmlns="http://www.w3.org/2000/svg">
          <defs>
            <linearGradient id="primaryGradient" x1="0%" y1="0%" x2="100%" y2="100%">
              <stop offset="0%" stop-color="#2563eb" />
              <stop offset="100%" stop-color="#3b82f6" />
            </linearGradient>
            <linearGradient id="secondaryGradient" x1="0%" y1="0%" x2="100%" y2="100%">
              <stop offset="0%" stop-color="#3b82f6" />
              <stop offset="100%" stop-color="#60a5fa" />
            </linearGradient>
            <linearGradient id="accentGradient" x1="0%" y1="0%" x2="100%" y2="100%">
              <stop offset="0%" stop-color="#dbeafe" />
              <stop offset="100%" stop-color="#ffffff" />
            </linearGradient>
            <linearGradient id="flowGradient" x1="0%" y1="0%" x2="100%" y2="0%">
              <stop offset="0%" stop-color="#2563eb" stop-opacity="0.4" />
              <stop offset="50%" stop-color="#3b82f6" stop-opacity="0.3" />
              <stop offset="100%" stop-color="#60a5fa" stop-opacity="0.2" />
            </linearGradient>
            <linearGradient id="whiteGradient" x1="0%" y1="0%" x2="100%" y2="0%">
              <stop offset="0%" stop-color="#ffffff" stop-opacity="0.95" />
              <stop offset="100%" stop-color="#f1f5f9" stop-opacity="0.8" />
            </linearGradient>
          </defs>
          <circle cx="40" cy="40" r="38" fill="url(#accentGradient)" opacity="0.1" />
          <g transform="translate(32, 24) rotate(-3)">
            <rect x="0" y="0" width="20" height="28" rx="2" fill="url(#secondaryGradient)" opacity="0.9" />
            <path d="M 15 0 L 20 0 L 20 5 Z" fill="url(#accentGradient)" opacity="0.7" />
            <path d="M 15 0 L 20 5 L 15 5 Z" fill="#2563eb" opacity="0.4" />
            <rect x="3" y="8" width="10" height="1.5" rx="0.5" fill="url(#whiteGradient)" opacity="0.9" />
            <rect x="3" y="11" width="8" height="1.5" rx="0.5" fill="url(#whiteGradient)" opacity="0.9" />
            <rect x="3" y="14" width="11" height="1.5" rx="0.5" fill="url(#whiteGradient)" opacity="0.9" />
            <rect x="3" y="17" width="7" height="1.5" rx="0.5" fill="url(#whiteGradient)" opacity="0.9" />
            <rect x="3" y="20" width="9" height="1.5" rx="0.5" fill="url(#whiteGradient)" opacity="0.9" />
          </g>
          <g transform="translate(25, 26)">
            <rect x="0" y="0" width="22" height="28" rx="2" fill="#2563eb" />
            <path d="M 16 0 L 22 0 L 22 6 Z" fill="url(#accentGradient)" opacity="0.9" />
            <path d="M 16 0 L 22 6 L 16 6 Z" fill="url(#secondaryGradient)" opacity="0.8" />
            <rect x="4" y="9" width="11" height="1.5" rx="0.5" fill="url(#whiteGradient)" />
            <rect x="4" y="12" width="9" height="1.5" rx="0.5" fill="url(#whiteGradient)" />
            <rect x="4" y="15" width="12" height="1.5" rx="0.5" fill="url(#whiteGradient)" />
            <rect x="4" y="18" width="8" height="1.5" rx="0.5" fill="url(#whiteGradient)" />
            <rect x="4" y="21" width="10" height="1.5" rx="0.5" fill="url(#whiteGradient)" />
          </g>
          <path d="M 12 37 Q 17 32 22 37" stroke="url(#flowGradient)" stroke-width="1.5" fill="none" stroke-linecap="round" opacity="0.7" />
          <path d="M 58 42 Q 63 37 68 42" stroke="url(#flowGradient)" stroke-width="1.5" fill="none" stroke-linecap="round" opacity="0.7" />
          <circle cx="15" cy="35" r="1.5" fill="#2563eb" opacity="0.5" />
          <circle cx="65" cy="40" r="1.5" fill="#2563eb" opacity="0.5" />
          <g transform="translate(38, 58)">
            <circle cx="2" cy="2" r="2" fill="#2563eb" opacity="0.4" />
            <circle cx="2" cy="2" r="1" fill="#3b82f6" opacity="0.5" />
          </g>
        </svg>
      