
        <svg width="256" height="256" viewBox="0 0 80 80" fill="none" xmlns="http://www.w3.org/2000/svg">
          <defs>
            <linearGradient id="monoGradient" x1="0%" y1="0%" x2="100%" y2="100%">
              <stop offset="0%" stop-color="#64748b" />
              <stop offset="100%" stop-color="#94a3b8" />
            </linearGradient>
            <linearGradient id="monoLightGradient" x1="0%" y1="0%" x2="100%" y2="100%">
              <stop offset="0%" stop-color="#e2e8f0" />
              <stop offset="100%" stop-color="#f1f5f9" />
            </linearGradient>
            <linearGradient id="monoWhiteGradient" x1="0%" y1="0%" x2="100%" y2="0%">
              <stop offset="0%" stop-color="#ffffff" stop-opacity="0.9" />
              <stop offset="100%" stop-color="#f8fafc" stop-opacity="0.7" />
            </linearGradient>
          </defs>
          <circle cx="40" cy="40" r="38" fill="url(#monoLightGradient)" opacity="0.08" />
          <g transform="translate(32, 24) rotate(-3)">
            <rect x="0" y="0" width="20" height="28" rx="2" fill="url(#monoGradient)" opacity="0.7" />
            <path d="M 15 0 L 20 0 L 20 5 Z" fill="url(#monoLightGradient)" opacity="0.6" />
            <path d="M 15 0 L 20 5 L 15 5 Z" fill="url(#monoGradient)" opacity="0.3" />
            <rect x="3" y="8" width="10" height="1.5" rx="0.5" fill="url(#monoWhiteGradient)" opacity="0.8" />
            <rect x="3" y="11" width="8" height="1.5" rx="0.5" fill="url(#monoWhiteGradient)" opacity="0.8" />
            <rect x="3" y="14" width="11" height="1.5" rx="0.5" fill="url(#monoWhiteGradient)" opacity="0.8" />
            <rect x="3" y="17" width="7" height="1.5" rx="0.5" fill="url(#monoWhiteGradient)" opacity="0.8" />
            <rect x="3" y="20" width="9" height="1.5" rx="0.5" fill="url(#monoWhiteGradient)" opacity="0.8" />
          </g>
          <g transform="translate(25, 26)">
            <rect x="0" y="0" width="22" height="28" rx="2" fill="#64748b" />
            <path d="M 16 0 L 22 0 L 22 6 Z" fill="url(#monoLightGradient)" opacity="0.8" />
            <path d="M 16 0 L 22 6 L 16 6 Z" fill="url(#monoGradient)" opacity="0.7" />
            <rect x="4" y="9" width="11" height="1.5" rx="0.5" fill="url(#monoWhiteGradient)" />
            <rect x="4" y="12" width="9" height="1.5" rx="0.5" fill="url(#monoWhiteGradient)" />
            <rect x="4" y="15" width="12" height="1.5" rx="0.5" fill="url(#monoWhiteGradient)" />
            <rect x="4" y="18" width="8" height="1.5" rx="0.5" fill="url(#monoWhiteGradient)" />
            <rect x="4" y="21" width="10" height="1.5" rx="0.5" fill="url(#monoWhiteGradient)" />
          </g>
          <circle cx="15" cy="35" r="1.5" fill="#64748b" opacity="0.4" />
          <circle cx="65" cy="40" r="1.5" fill="#64748b" opacity="0.4" />
          <g transform="translate(38, 58)">
            <circle cx="2" cy="2" r="2" fill="#64748b" opacity="0.3" />
            <circle cx="2" cy="2" r="1" fill="#94a3b8" opacity="0.4" />
          </g>
        </svg>
      